<?xml version="1.0" standalone="no"?>
<!DOCTYPE svg PUBLIC "-//W3C//DTD SVG 20010904//EN"
 "http://www.w3.org/TR/2001/REC-SVG-20010904/DTD/svg10.dtd">
<svg version="1.0" xmlns="http://www.w3.org/2000/svg"
 width="260.000000pt" height="260.000000pt" viewBox="0 0 260.000000 260.000000"
 preserveAspectRatio="xMidYMid meet">
<metadata>
Created by potrace 1.11, written by Peter Selinger 2001-2013
</metadata>
<g transform="translate(0.000000,260.000000) scale(0.100000,-0.100000)"
fill="#000000" stroke="none">
<path d="M10 1845 l1 -746 86 118 c48 65 116 156 152 203 35 47 69 92 75 100
10 14 -151 -152 -244 -252 -42 -45 -79 -69 -49 -31 10 11 10 14 1 9 -28 -17
-8 14 54 82 36 40 74 72 84 72 16 0 240 222 240 238 0 4 -52 32 -115 61 -64
30 -114 56 -111 58 2 2 56 -18 120 -46 139 -61 162 -65 51 -10 -90 44 -84 44
24 -1 88 -36 124 -34 150 11 9 16 19 29 24 29 4 0 7 9 7 21 0 12 8 23 19 26
23 6 81 76 81 97 0 9 6 16 13 16 7 0 20 8 28 18 15 17 15 20 -2 31 -11 6 -19
18 -19 25 0 8 -5 16 -11 18 -7 2 -4 10 7 18 11 9 15 10 10 3 -4 -7 -2 -13 3
-13 16 0 13 20 -4 26 -8 4 -15 10 -15 16 0 5 6 6 13 2 8 -5 7 -2 -2 10 -11 13
-16 14 -24 4 -6 -9 -7 -8 -3 5 3 10 6 23 6 29 0 6 7 5 18 -3 15 -11 15 -11 4
1 -7 8 -17 15 -22 15 -4 0 -25 23 -46 50 -25 33 -29 42 -12 27 13 -12 27 -20
30 -16 3 3 27 -22 52 -55 45 -58 47 -60 74 -48 16 7 39 19 52 28 l24 16 -24
12 c-24 11 -24 11 -6 -3 17 -14 18 -16 3 -16 -9 0 -18 3 -18 8 -9 52 -4 63 16
35 12 -17 17 -18 152 -29 79 -7 82 -6 108 20 31 31 35 32 35 8 0 -34 21 -42
112 -42 73 0 88 3 88 16 0 14 2 14 15 1 23 -23 58 -10 52 19 -3 20 0 24 20 24
14 0 36 -9 50 -20 26 -20 93 -28 93 -10 0 5 -13 19 -30 32 -41 30 -38 45 7 43
35 -2 39 -6 46 -39 7 -30 13 -36 34 -36 25 0 25 2 19 46 l-6 46 40 -36 c58
-52 80 -46 80 25 0 39 14 37 40 -6 24 -39 35 -42 85 -21 23 10 35 22 35 35 0
28 61 47 100 31 25 -10 34 -9 69 11 23 12 41 29 41 36 0 7 -15 27 -32 44 l-33
31 77 -7 c82 -7 118 -1 118 20 0 7 -35 43 -79 78 l-79 66 -21 -23 -21 -22 25
-24 c13 -12 22 -27 19 -31 -3 -5 14 -9 36 -9 l42 0 -44 36 c-23 20 -45 38 -47
39 -1 2 0 8 3 14 7 10 136 -91 145 -112 2 -6 -18 -8 -55 -3 -33 4 -84 9 -114
13 l-55 5 53 -54 c39 -40 50 -57 39 -61 -14 -5 -62 39 -119 110 -25 31 -38 33
-38 7 0 -7 15 -30 33 -50 l32 -38 -50 29 c-27 16 -55 33 -62 37 -7 5 -22 8
-35 6 -22 -3 -23 -7 -22 -77 0 -82 4 -83 -59 8 -47 69 -73 54 -79 -44 l-3 -40
-31 30 c-63 62 -77 67 -19 7 l60 -63 7 38 c4 21 7 53 7 71 1 46 20 40 61 -20
78 -116 73 -108 56 -108 -9 0 -33 26 -53 57 l-38 57 -3 -60 c-2 -32 -7 -63
-12 -68 -5 -5 -32 12 -66 43 -31 28 -58 50 -60 48 -2 -1 3 -27 11 -57 8 -30
15 -56 15 -57 0 -2 -6 -3 -14 -3 -15 0 -51 151 -42 177 5 13 4 14 -9 3 -11 -9
-14 -22 -9 -46 5 -28 3 -33 -18 -36 -16 -2 -33 7 -54 29 -17 18 -40 33 -50 33
-13 -1 -9 -5 12 -14 17 -8 34 -21 38 -31 9 -26 7 -63 -5 -70 -6 -4 2 -16 21
-30 26 -19 28 -24 14 -29 -11 -4 -27 2 -44 19 -15 14 -38 25 -53 25 -30 0 -37
16 -9 23 9 3 3 5 -14 6 -23 1 -33 7 -37 21 -5 18 0 20 38 20 48 0 64 -13 44
-36 -10 -12 -9 -13 5 -8 20 8 21 48 0 65 -14 11 -102 15 -112 4 -2 -2 8 -35
22 -72 31 -80 31 -85 10 -81 -10 2 -27 33 -45 83 -16 44 -29 83 -29 88 0 4 21
8 48 9 26 1 -11 4 -83 7 -134 6 -158 2 -148 -27 4 -12 -2 -10 -23 8 -16 14
-32 30 -36 35 -4 6 -8 6 -8 2 0 -5 -7 -1 -16 8 -12 12 -19 13 -30 4 -11 -9
-15 -8 -20 5 -3 9 -10 16 -16 16 -5 0 -6 -5 -2 -12 4 -7 3 -8 -4 -4 -12 7 -5
36 8 36 4 0 11 -7 14 -16 10 -25 27 -5 20 24 -5 22 -3 24 6 12 10 -13 11 -12
8 5 -5 24 28 61 35 41 3 -7 1 -19 -4 -27 -7 -12 -9 -12 -9 0 0 8 -2 12 -5 10
-2 -3 -2 -15 2 -27 6 -23 6 -23 19 3 23 44 -12 107 -46 82 -12 -9 -13 -9 -2 3
6 8 12 21 12 29 0 19 -39 -27 -40 -46 0 -18 -20 -16 -20 2 0 8 4 15 10 15 15
0 41 57 34 74 -5 13 -24 16 -95 16 l-88 0 -17 -56 c-9 -30 -23 -58 -31 -61 -9
-4 -32 -24 -51 -45 -19 -21 -37 -36 -40 -33 -3 3 11 22 31 43 30 31 66 109 67
145 0 4 -23 7 -50 7 -49 0 -56 -4 -173 -95 -67 -52 -126 -95 -131 -95 -5 0 3
10 18 21 26 21 27 22 9 43 -18 21 -18 21 4 2 22 -18 22 -18 100 45 43 34 82
66 87 71 6 4 -126 8 -292 8 l-302 0 0 -745z m975 614 c-4 -5 -12 -9 -18 -8 -9
0 -8 2 1 6 6 2 9 10 6 15 -4 7 -2 8 5 4 6 -4 9 -12 6 -17z m-441 -50 c31 -12
56 -26 56 -30 0 -13 -26 -11 -67 6 -20 9 -43 13 -50 11 -28 -11 -11 -33 41
-55 30 -12 57 -29 60 -36 7 -20 -12 -72 -30 -79 -16 -6 -154 42 -154 53 0 18
16 18 61 0 67 -26 91 -25 87 2 -2 15 -17 27 -44 38 -76 30 -90 55 -54 91 25
25 26 25 94 -1z m1392 -70 c61 -33 92 -55 86 -61 -6 -6 -20 -5 -37 5 -25 12
-33 12 -74 -3 -25 -10 -47 -24 -49 -31 -11 -43 -13 -45 -22 -28 -15 27 -24
169 -11 169 7 0 55 -23 107 -51z m-1211 18 c65 -16 88 -51 61 -92 -16 -24 -22
-26 -54 -20 -58 10 -73 16 -66 26 3 6 24 7 48 4 36 -6 44 -4 50 11 8 21 -24
54 -53 54 -9 0 -25 3 -37 6 -19 5 -22 -1 -33 -70 -9 -53 -17 -76 -27 -76 -17
0 -17 12 -4 82 21 103 19 99 43 93 12 -3 44 -11 72 -18z m125 -39 c0 -13 -3
-53 -7 -90 -4 -51 -10 -68 -21 -68 -12 0 -14 10 -8 53 3 28 6 69 6 90 0 26 4
37 15 37 9 0 15 -9 15 -22z m133 2 c44 0 87 -49 87 -99 0 -71 -36 -89 -144
-75 l-46 7 0 90 0 90 38 -7 c20 -3 50 -6 65 -6z m247 -20 c0 -5 -25 -10 -55
-10 -55 0 -61 -4 -49 -34 5 -12 20 -16 60 -16 30 0 54 -4 54 -10 0 -5 -25 -10
-56 -10 -47 0 -55 -3 -50 -16 3 -9 6 -22 6 -30 0 -11 16 -14 70 -14 56 0 70
-3 70 -15 0 -13 -14 -15 -82 -13 l-82 3 -7 34 c-4 19 -10 58 -14 87 l-6 54 70
0 c41 0 71 -4 71 -10z m49 -98 c10 -29 14 -49 8 -43 -6 6 -37 11 -69 11 -32 0
-58 4 -58 10 0 6 23 10 50 10 46 0 50 2 50 25 0 13 -8 29 -17 35 -17 10 -17
11 0 8 12 -2 25 -21 36 -56z m251 38 c0 -5 -9 -10 -20 -10 -11 0 -20 5 -20 10
0 6 9 10 20 10 11 0 20 -4 20 -10z m-730 -40 c0 -5 -2 -10 -4 -10 -3 0 -8 5
-11 10 -3 6 -1 10 4 10 6 0 11 -4 11 -10z m-55 -88 c-3 -3 -11 0 -18 7 -9 10
-8 11 6 5 10 -3 15 -9 12 -12z m38 -29 c-7 -2 -19 -2 -25 0 -7 3 -2 5 12 5 14
0 19 -2 13 -5z m-125 -68 c-3 -3 -9 2 -12 12 -6 14 -5 15 5 6 7 -7 10 -15 7
-18z m12 -89 c0 -2 -8 -10 -17 -17 -16 -13 -17 -12 -4 4 13 16 21 21 21 13z
m-430 -166 c8 -5 11 -10 5 -10 -5 0 -17 5 -25 10 -8 5 -10 10 -5 10 6 0 17 -5
25 -10z"/>
<path d="M1848 2325 c5 -43 8 -45 52 -30 l35 12 -42 26 c-24 15 -44 27 -46 27
-2 0 -1 -16 1 -35z"/>
<path d="M912 2238 l3 -63 50 -3 c38 -3 52 1 62 14 36 49 -8 114 -77 114 l-41
0 3 -62z m107 6 c12 -11 12 -18 3 -39 -10 -22 -18 -26 -45 -23 -30 3 -32 6
-35 46 l-3 44 33 -7 c18 -4 39 -13 47 -21z"/>
<path d="M970 2583 c1 -10 26 -43 32 -43 3 0 13 11 22 25 l16 25 -35 0 c-19 0
-35 -3 -35 -7z"/>
<path d="M1050 2558 c-31 -32 -35 -69 -9 -76 11 -3 11 -1 -1 7 -13 10 -8 15
12 12 4 0 5 6 2 14 -4 8 -11 12 -17 8 -6 -3 -7 -1 -3 5 4 6 14 8 23 5 12 -5
15 -2 10 10 -3 8 0 20 7 26 19 16 46 3 39 -17 -8 -22 1 -13 15 14 10 19 8 21
-19 22 -21 0 -39 -8 -59 -30z"/>
<path d="M1169 2563 c-13 -16 -12 -17 4 -4 9 7 17 15 17 17 0 8 -8 3 -21 -13z"/>
<path d="M1085 2560 c-3 -5 -1 -10 4 -10 6 0 11 5 11 10 0 6 -2 10 -4 10 -3 0
-8 -4 -11 -10z"/>
<path d="M1118 2493 c-1 -16 -1 -39 0 -52 1 -14 -4 -32 -11 -40 -9 -12 -9 -13
1 -7 8 5 12 0 12 -13 0 -20 5 -21 185 -21 l186 0 -3 78 -3 77 -182 3 -183 2
-2 -27z m42 -5 l9 -23 7 23 c9 32 28 22 35 -19 l6 -34 2 32 c1 31 16 51 28 39
3 -3 9 -23 13 -43 l8 -38 1 43 c1 29 5 42 15 42 8 0 18 -5 21 -10 5 -8 11 -7
21 1 15 12 18 8 27 -36 3 -15 5 -13 6 8 1 25 4 27 46 27 l45 0 0 -45 c0 -25 5
-45 10 -45 6 0 10 -7 10 -15 0 -11 -12 -15 -45 -15 -42 0 -45 2 -46 28 l-2 27
-4 -27 c-5 -30 -33 -39 -33 -10 0 9 -5 24 -11 32 -8 11 -9 7 -5 -17 6 -38 -10
-45 -24 -10 l-9 22 0 -22 c-1 -25 -35 -33 -44 -10 -4 9 -7 9 -15 -1 -12 -17
-65 -11 -74 8 -5 12 -7 12 -7 -2 -1 -10 -5 -18 -11 -18 -11 0 -14 113 -3 123
10 11 13 9 23 -15z"/>
<path d="M1290 2466 c0 -9 5 -16 10 -16 6 0 10 4 10 9 0 6 -4 13 -10 16 -5 3
-10 -1 -10 -9z"/>
<path d="M1410 2471 c0 -6 5 -13 10 -16 6 -3 10 1 10 9 0 9 -4 16 -10 16 -5 0
-10 -4 -10 -9z"/>
<path d="M1410 2421 c0 -6 5 -13 10 -16 6 -3 10 1 10 9 0 9 -4 16 -10 16 -5 0
-10 -4 -10 -9z"/>
<path d="M1949 2437 c5 -5 28 -7 52 -5 l44 3 -52 5 c-29 3 -48 1 -44 -3z"/>
<path d="M630 2146 c0 -2 8 -10 18 -17 15 -13 16 -12 3 4 -13 16 -21 21 -21
13z"/>
<path d="M841 2095 c-14 -14 -20 -28 -16 -35 5 -9 1 -10 -14 -5 -13 4 -21 2
-21 -5 0 -6 5 -8 10 -5 6 3 10 1 10 -4 0 -25 21 -8 40 31 11 23 19 42 17 43
-1 2 -13 -8 -26 -20z"/>
<path d="M866 2062 c-10 -20 -12 -32 -6 -25 7 6 18 9 24 7 6 -2 19 9 29 26 16
27 16 30 2 30 -9 0 -14 -4 -11 -9 3 -5 -2 -15 -12 -22 -15 -13 -16 -12 -4 3 7
9 9 19 4 22 -5 3 -17 -12 -26 -32z"/>
<path d="M936 2078 c-9 -12 -16 -26 -16 -30 0 -4 -14 -30 -30 -59 -38 -63 -32
-78 6 -18 15 24 36 51 48 61 20 17 20 18 1 11 -20 -7 -20 -7 -2 21 22 34 16
47 -7 14z"/>
<path d="M1722 2053 c-7 -2 -17 -14 -23 -26 l-12 -22 24 21 c13 12 31 24 39
27 13 5 13 5 0 5 -8 0 -21 -2 -28 -5z"/>
<path d="M1360 2040 c0 -5 4 -10 9 -10 6 0 13 5 16 10 3 6 -1 10 -9 10 -9 0
-16 -4 -16 -10z"/>
<path d="M991 2009 c-17 -23 -27 -28 -44 -23 -17 5 -19 3 -11 -6 16 -17 51 -4
71 26 23 36 10 39 -16 3z"/>
<path d="M1126 2031 c-13 -20 -25 -62 -17 -57 5 3 14 19 19 36 10 29 9 40 -2
21z"/>
<path d="M1165 2030 c-7 -12 12 -12 40 0 18 8 17 9 -7 9 -15 1 -30 -3 -33 -9z"/>
<path d="M1257 2033 c-4 -3 -7 -11 -7 -17 0 -7 3 -7 8 0 4 7 16 14 27 17 19 5
19 5 -1 6 -11 0 -24 -2 -27 -6z"/>
<path d="M1566 2009 c-9 -18 -14 -34 -12 -37 3 -2 12 10 21 28 9 18 14 34 12
37 -3 2 -12 -10 -21 -28z"/>
<path d="M858 2022 c-19 -8 -72 -82 -59 -82 5 0 19 16 31 35 12 19 28 35 35
35 8 0 17 5 20 10 7 11 -2 12 -27 2z"/>
<path d="M950 2015 c-7 -8 -8 -15 -2 -15 5 0 15 7 22 15 7 8 8 15 2 15 -5 0
-15 -7 -22 -15z"/>
<path d="M1075 2010 c-27 -30 -12 -34 15 -5 13 14 19 25 13 25 -5 0 -18 -9
-28 -20z"/>
<path d="M1497 2022 c1 -3 -4 -14 -14 -24 -9 -10 -11 -18 -6 -18 18 0 37 30
26 39 -5 5 -8 6 -6 3z"/>
<path d="M1523 2004 c-6 -13 -7 -24 -3 -24 9 0 25 39 18 45 -2 2 -8 -7 -15
-21z"/>
<path d="M1619 2010 c-13 -10 -19 -19 -13 -20 6 0 19 9 29 20 23 26 14 26 -16
0z"/>
<path d="M1652 2005 c-6 -14 -8 -25 -4 -25 4 0 12 11 19 25 6 14 8 25 4 25 -4
0 -13 -11 -19 -25z"/>
<path d="M798 2012 c-19 -4 -24 -17 -9 -26 5 -3 14 1 21 9 15 18 12 23 -12 17z"/>
<path d="M1029 2000 c-13 -10 -19 -19 -13 -20 6 0 19 9 29 20 23 26 14 26 -16
0z"/>
<path d="M1765 2011 l30 -8 -30 -12 c-16 -7 -40 -10 -53 -8 -16 3 -20 1 -14
-5 14 -14 75 -2 102 20 21 17 20 17 -22 19 -38 1 -39 0 -13 -6z"/>
<path d="M1173 2003 c9 -2 23 -2 30 0 6 3 -1 5 -18 5 -16 0 -22 -2 -12 -5z"/>
<path d="M1365 2000 c-3 -5 1 -10 10 -10 9 0 13 5 10 10 -3 6 -8 10 -10 10 -2
0 -7 -4 -10 -10z"/>
<path d="M1436 1995 c-16 -12 -17 -15 -4 -15 8 0 21 7 28 15 16 19 1 19 -24 0z"/>
<path d="M1230 1996 c0 -8 48 -12 66 -5 13 5 7 8 -23 8 -24 1 -43 -1 -43 -3z"/>
<path d="M696 1974 c-3 -8 -2 -13 3 -9 5 3 11 -1 14 -7 2 -7 8 -10 12 -6 4 4
1 14 -8 22 -13 14 -16 14 -21 0z"/>
<path d="M1160 1980 c-20 -6 -21 -8 -5 -8 11 0 31 4 45 8 20 6 21 8 5 8 -11 0
-31 -4 -45 -8z"/>
<path d="M737 1923 c-4 -3 -7 -14 -7 -22 0 -16 -32 -51 -48 -51 -7 -1 -18 -13
-117 -125 l-44 -50 25 -9 c19 -6 29 -5 35 5 22 35 4 -11 -19 -50 -31 -50 -48
-61 -48 -32 0 11 4 17 8 15 4 -3 12 4 18 15 15 30 -18 45 -68 32 -34 -10 -42
-19 -97 -118 -66 -119 -239 -417 -261 -448 -25 -35 -17 -42 68 -53 68 -9 86
-8 114 6 18 8 31 19 28 24 -3 4 1 5 8 3 8 -3 22 1 33 10 20 15 20 15 0 8 -18
-6 -18 -5 -6 10 12 15 11 17 -5 18 -14 1 -13 3 6 9 19 6 21 8 6 9 -18 1 -17 3
4 21 24 20 50 27 50 12 0 -5 19 -15 43 -22 49 -16 74 -35 93 -72 14 -27 44
-39 44 -18 0 16 -62 153 -78 172 -12 15 -12 20 4 45 11 15 27 44 37 63 10 19
41 51 69 70 29 19 69 51 89 71 l38 36 72 -19 c40 -10 73 -19 75 -20 1 -2 -18
-25 -43 -53 -73 -81 -91 -108 -96 -146 -5 -42 -26 -86 -27 -57 0 9 4 28 10 42
14 39 1 31 -16 -9 -9 -22 -14 -70 -14 -138 0 -57 -3 -106 -6 -110 -4 -3 -17 1
-30 9 -13 9 -28 13 -34 9 -12 -7 -14 -35 -2 -35 5 0 16 -16 26 -37 l17 -36
-25 17 c-30 19 -35 4 -11 -28 8 -11 15 -25 15 -30 0 -6 -7 -2 -15 8 -12 16
-15 17 -15 4 0 -26 68 -238 82 -256 7 -9 -16 0 -52 20 -90 49 -186 85 -245 91
l-50 5 43 -19 c23 -10 42 -20 42 -23 0 -3 -45 -3 -101 0 -112 6 -139 1 -139
-25 0 -19 -24 -44 -52 -54 -20 -7 -88 51 -88 76 0 9 10 24 23 34 l23 18 -55
115 -56 115 -3 -390 c-2 -347 -1 -394 14 -427 9 -21 18 -38 20 -38 1 0 33 15
71 33 70 33 83 50 63 87 -8 15 -8 20 1 18 18 -5 19 30 1 44 -15 12 -16 11 -3
-4 9 -12 10 -18 2 -18 -11 0 -15 13 -12 38 1 8 -7 16 -18 19 -12 3 -18 9 -15
14 3 6 -4 26 -16 47 l-21 37 36 -40 c20 -22 49 -61 65 -86 38 -58 191 -199
250 -229 24 -12 76 -33 114 -46 64 -22 85 -24 280 -24 140 0 206 4 196 10 -13
8 -13 10 1 10 16 0 154 89 232 149 24 19 57 33 85 37 26 3 62 13 81 20 45 19
48 13 11 -24 -31 -32 -100 -119 -100 -127 0 -3 13 -5 28 -5 21 0 41 14 78 53
63 65 98 85 124 70 26 -17 87 2 122 38 22 21 38 28 66 28 20 0 62 3 93 6 38 5
59 4 63 -4 17 -27 126 -2 126 30 0 18 -10 23 -37 20 -7 -1 -29 5 -49 14 -20 8
-44 15 -53 15 -9 0 -44 13 -79 30 -56 26 -66 35 -88 82 -14 29 -30 61 -37 70
-8 12 -8 25 -2 41 67 167 90 223 92 226 7 10 135 -127 187 -199 50 -69 71
-115 112 -240 26 -79 69 -154 101 -175 49 -32 69 -46 56 -40 -6 3 -19 -5 -27
-17 -9 -12 -16 -18 -16 -13 0 5 -7 0 -15 -11 -12 -15 -16 -16 -24 -5 -6 9 -11
10 -15 2 -4 -6 -2 -11 3 -11 6 0 11 -9 11 -20 0 -15 -7 -20 -25 -20 -18 0 -25
5 -25 20 0 11 -5 20 -11 20 -6 0 -9 -9 -6 -20 4 -15 0 -20 -13 -20 -10 0 -17
7 -16 16 0 9 -5 19 -12 21 -7 3 -12 1 -11 -4 4 -22 -3 -33 -21 -33 -18 0 -25
10 -21 33 0 4 -3 7 -9 7 -9 0 -11 -6 -9 -27 0 -5 -10 -11 -23 -14 -13 -3 20
-6 72 -7 124 -3 129 -3 123 -18 -3 -9 46 -12 211 -13 l216 -1 0 460 c0 253 -3
460 -7 460 -5 -1 -24 -9 -43 -20 -27 -15 -31 -19 -15 -20 11 -1 14 -4 8 -7
-19 -7 -16 -23 5 -24 12 0 10 -3 -8 -10 l-24 -10 32 -25 c17 -14 32 -30 32
-36 0 -7 -10 -2 -23 10 -38 35 -44 25 -8 -12 l33 -34 -42 -191 -43 -191 24
-27 24 -27 -31 22 -31 22 43 192 44 192 -27 29 c-25 25 -29 26 -40 11 -6 -9
-11 -36 -9 -60 1 -23 -1 -41 -6 -38 -4 3 -8 13 -8 22 0 31 -47 118 -73 134
-71 47 -119 28 -165 -65 -18 -36 -32 -76 -32 -90 0 -51 -17 -35 -35 31 -55
206 -153 427 -234 530 -21 27 -46 62 -55 79 -20 40 -74 73 -117 73 -57 0 -106
-40 -174 -140 -13 -19 -60 -87 -103 -150 -78 -114 -143 -254 -146 -312 -2 -44
-22 -33 -48 25 -17 36 -17 40 3 100 16 46 22 88 23 164 l1 103 32 -6 c41 -8
100 12 117 39 21 34 37 112 45 222 9 108 -1 175 -14 98 -4 -24 -14 -48 -21
-54 -12 -10 -13 -8 -8 6 5 13 4 16 -4 11 -18 -11 -14 3 14 52 22 37 24 48 15
69 -6 13 -9 28 -6 33 10 16 -43 118 -85 163 -59 65 -119 91 -195 85 -110 -9
-188 -69 -188 -145 0 -21 -6 -43 -13 -50 -18 -18 -23 -16 -17 7 5 18 0 20 -38
20 -24 0 -80 -6 -124 -14 -99 -17 -165 -19 -165 -6 0 6 11 10 25 10 14 0 25 5
25 10 0 6 8 10 18 10 11 0 13 3 5 8 -6 4 -15 19 -18 35 -4 15 -11 25 -15 22
-5 -3 -6 4 -3 15 3 11 9 17 14 14 5 -3 7 -10 4 -15 -4 -5 -1 -9 5 -9 6 0 8 -5
4 -12 -4 -6 -3 -8 4 -5 5 4 8 17 5 30 -4 18 -3 19 7 7 9 -12 10 -10 5 10 -8
28 -8 26 -6 59 1 21 3 22 19 10 15 -13 16 -12 3 4 -15 19 -15 19 -24 10z m-7
-69 c0 -8 -5 -12 -10 -9 -6 4 -8 11 -5 16 9 14 15 11 15 -7z m-73 -230 c13 -4
20 -10 17 -15 -3 -5 -14 -4 -25 2 -17 9 -21 7 -26 -10 -5 -19 -31 -36 -41 -26
-3 3 1 16 8 30 14 25 28 29 67 19z m286 -101 c-7 -3 -13 -11 -13 -18 0 -8 -5
-17 -11 -21 -8 -4 -9 1 -4 17 8 25 26 42 35 32 3 -3 -1 -8 -7 -10z m234 -55
c-6 -4 -15 -2 -19 5 -11 17 1 28 16 14 10 -8 11 -14 3 -19z m-699 -25 c-7 -9
-7 -18 3 -30 9 -10 9 -14 2 -10 -7 5 -18 -3 -28 -20 -9 -15 -13 -19 -9 -8 3
11 6 27 6 35 0 8 4 28 10 43 8 20 13 25 19 16 4 -8 3 -19 -3 -26z m770 8 c14
-3 30 -20 37 -38 13 -32 13 -32 -21 -43 -18 -6 -43 -9 -53 -5 -21 6 -71 60
-71 75 0 17 65 24 108 11z m-835 -109 c-3 -12 -9 -22 -13 -22 -5 0 -6 -9 -3
-19 3 -13 -2 -23 -16 -30 -12 -7 -21 -8 -21 -2 0 5 7 11 15 15 8 3 15 11 15
18 0 9 -3 8 -10 -2 -14 -21 -12 -3 1 23 12 22 32 46 36 43 1 -1 0 -12 -4 -24z
m1305 -31 c-5 -16 -5 -27 1 -31 7 -4 7 -18 0 -43 -13 -47 -23 -48 -15 -2 5 23
3 35 -4 35 -20 0 -47 -35 -53 -68 -6 -31 -37 -76 -37 -53 0 6 -6 8 -13 5 -8
-3 -19 2 -26 10 -10 11 -6 21 21 51 18 21 33 45 35 53 1 9 9 22 17 28 9 6 16
17 16 24 0 7 3 10 7 7 3 -4 12 2 20 13 20 28 45 5 31 -29z m-1358 -111 c13 -9
13 -12 -2 -24 -10 -7 -16 -16 -13 -19 3 -4 2 -5 -2 -2 -12 9 -12 35 0 35 7 0
5 5 -3 10 -8 5 -10 10 -5 10 6 0 17 -5 25 -10z m1192 -75 c4 -19 2 -23 -7 -15
-10 8 -20 1 -42 -27 -16 -21 -34 -49 -41 -63 -9 -20 -11 -21 -9 -5 1 11 12 34
24 52 13 17 23 35 23 39 0 6 39 44 45 44 2 0 5 -11 7 -25z m42 -41 c3 -8 2
-12 -4 -9 -6 3 -10 10 -10 16 0 14 7 11 14 -7z m149 -92 c-6 -24 -18 -29 -25
-9 -3 6 -5 35 -6 62 l-2 50 19 -41 c11 -23 18 -50 14 -62z m-152 39 c-7 -5
-10 -14 -7 -20 4 -6 3 -11 -3 -11 -5 0 -13 5 -17 11 -7 11 12 29 31 29 6 0 4
-4 -4 -9z m-155 -47 c-4 -9 -9 -15 -11 -12 -3 3 -3 13 1 22 4 9 9 15 11 12 3
-3 3 -13 -1 -22z m-571 6 c3 -5 -1 -10 -9 -10 -9 0 -16 5 -16 10 0 6 4 10 9
10 6 0 13 -4 16 -10z m925 -61 c0 -16 -4 -29 -10 -29 -5 0 -10 16 -10 36 0 21
4 33 10 29 6 -3 10 -19 10 -36z m-370 9 c0 -7 -4 -19 -9 -27 -6 -9 -8 -5 -8
13 0 14 3 26 8 26 5 0 9 -6 9 -12z m21 -155 c29 -46 15 -41 -20 7 l-28 39 -12
-26 c-8 -18 -15 -23 -23 -15 -6 6 -7 16 -2 24 5 7 9 18 9 23 1 6 6 9 13 8 8
-2 10 8 6 30 -5 29 -4 28 16 -12 11 -25 30 -60 41 -78z m148 -83 c0 -10 -3 -8
-9 5 -12 27 -12 43 0 25 5 -8 9 -22 9 -30z m-1537 -115 c-2 -19 0 -35 6 -35 5
0 12 -13 14 -29 5 -38 -5 -32 -27 15 -10 21 -14 46 -11 60 10 37 23 29 18 -11z
m595 19 c-3 -3 -12 -4 -19 -1 -8 3 -5 6 6 6 11 1 17 -2 13 -5z m-267 -23 c0
-5 -7 -12 -16 -15 -14 -5 -15 -4 -4 9 14 17 20 19 20 6z m1807 -43 c-3 -8 -6
-5 -6 6 -1 11 2 17 5 13 3 -3 4 -12 1 -19z m2 -60 c-1 -31 -1 -31 -8 -8 -5 14
-6 28 -4 33 9 15 13 6 12 -25z m-713 -99 c5 -9 -1 -10 -22 -5 -27 7 -44 21
-44 39 0 10 57 -20 66 -34z m64 16 c0 -8 -4 -15 -10 -15 -5 0 -10 7 -10 15 0
8 5 15 10 15 6 0 10 -7 10 -15z m-53 -77 c-3 -8 -6 -5 -6 6 -1 11 2 17 5 13 3
-3 4 -12 1 -19z m866 -167 c33 -47 36 -64 4 -24 -44 55 -49 63 -41 63 5 0 21
-18 37 -39z m-120 -68 c-13 -2 -23 -9 -23 -15 0 -5 7 -8 15 -4 8 3 15 1 15 -4
0 -6 -9 -10 -20 -10 -13 0 -20 7 -20 20 0 15 6 20 28 19 23 -2 24 -2 5 -6z
m67 -4 c0 6 5 11 10 11 6 0 10 -8 10 -17 0 -13 -9 -19 -30 -20 -19 -1 -30 3
-30 11 0 20 12 27 27 15 9 -9 13 -8 13 0z m158 -6 c-4 -22 -38 -30 -38 -10 0
14 13 24 33 26 5 1 7 -7 5 -16z m42 -9 c0 -8 -7 -14 -15 -14 -15 0 -21 21 -9
33 10 9 24 -2 24 -19z m-90 -1 c0 -15 -2 -16 -10 -3 -8 12 -10 12 -10 1 0 -10
-3 -11 -14 -2 -11 9 -15 9 -18 0 -2 -7 -10 -9 -16 -5 -24 14 -11 26 28 26 31
0 40 -4 40 -17z m124 10 c-5 -5 -12 -12 -16 -18 -4 -6 -8 -2 -8 8 0 9 7 17 17
17 9 0 12 -3 7 -7z"/>
<path d="M272 1423 c-60 -82 -182 -243 -228 -300 -43 -53 -43 -68 -1 -71 l33
-2 126 220 c69 121 124 220 123 220 -2 0 -26 -30 -53 -67z"/>
<path d="M2581 1414 c0 -11 3 -14 6 -6 3 7 2 16 -1 19 -3 4 -6 -2 -5 -13z"/>
<path d="M2576 1355 c-4 -14 -4 -30 -1 -35 3 -5 1 -11 -4 -14 -5 -3 -7 -15 -4
-26 3 -11 0 -27 -7 -35 -10 -12 -10 -18 0 -30 7 -8 10 -26 8 -39 -3 -13 1 -35
8 -47 11 -21 13 -5 14 114 0 75 -2 137 -4 137 -2 0 -7 -11 -10 -25z"/>
<path d="M671 1097 c-13 -34 -14 -40 -2 -33 5 3 12 -4 16 -17 7 -20 8 -19 12
10 2 18 0 41 -6 50 -9 16 -11 15 -20 -10z"/>
<path d="M2547 1103 c-2 -5 7 -26 19 -48 23 -39 24 -39 24 -12 0 45 -29 85
-43 60z"/>
<path d="M372 1053 c-6 -2 -9 -9 -6 -15 4 -7 9 -6 14 1 3 7 7 -1 7 -17 0 -19
-6 -28 -18 -29 -18 -2 -33 22 -23 38 3 5 -2 9 -10 9 -8 0 -18 -4 -21 -10 -3
-5 -15 -10 -26 -10 -23 0 -25 -13 -4 -33 8 -8 11 -17 8 -21 -4 -3 18 -6 48 -5
44 1 49 3 29 10 -21 7 -20 8 13 6 20 -2 37 1 37 5 0 4 -5 8 -11 8 -8 0 -7 5 1
15 11 13 10 14 -4 9 -14 -5 -16 -2 -10 20 6 26 1 29 -24 19z m-32 -62 c0 -5
-7 -12 -16 -15 -14 -5 -15 -4 -4 9 14 17 20 19 20 6z"/>
<path d="M11 1028 c0 -7 30 -72 67 -145 46 -91 71 -130 79 -125 9 6 -2 44 -39
145 -49 132 -52 137 -80 137 -16 0 -28 -5 -27 -12z"/>
<path d="M2540 1025 c6 -8 9 -19 5 -25 -3 -5 -2 -10 4 -10 18 0 22 20 7 35
-19 19 -32 20 -16 0z"/>
<path d="M90 1026 c0 -3 23 -63 51 -135 32 -82 56 -131 65 -131 8 0 14 4 14
10 0 22 -62 235 -72 247 -9 12 -58 19 -58 9z"/>
<path d="M350 1020 c0 -5 5 -10 10 -10 6 0 10 5 10 10 0 6 -4 10 -10 10 -5 0
-10 -4 -10 -10z"/>
<path d="M170 1014 c0 -5 16 -66 37 -136 l36 -126 61 -4 c66 -4 78 -2 57 11
-11 7 -11 9 0 13 7 2 9 9 5 17 -7 10 -10 10 -16 1 -5 -8 -9 -8 -13 3 -4 11 1
14 18 13 15 -2 25 3 28 14 6 25 -3 37 -43 54 l-35 15 50 2 c44 1 46 2 20 9
-22 6 -25 8 -10 10 11 1 24 2 28 1 5 -1 6 3 3 8 -3 5 -17 8 -31 6 -14 -1 -25
2 -25 6 0 5 -14 9 -31 9 -25 0 -32 6 -45 35 -8 21 -21 35 -32 35 -9 0 -27 3
-39 6 -13 4 -23 2 -23 -2z m130 -134 c0 -5 -2 -10 -4 -10 -3 0 -8 5 -11 10 -3
6 -1 10 4 10 6 0 11 -4 11 -10z"/>
<path d="M2545 975 c-24 -11 -26 -14 -10 -14 16 -1 17 -3 5 -11 -21 -13 -7
-22 24 -14 19 4 26 13 26 30 0 27 -4 28 -45 9z"/>
<path d="M190 240 c0 -5 8 -6 17 -3 17 7 17 6 0 -20 -15 -23 -15 -27 -2 -27 8
0 15 6 15 14 0 8 3 21 6 30 4 12 0 16 -15 16 -12 0 -21 -4 -21 -10z"/>
<path d="M230 181 c0 -6 9 -9 20 -8 11 1 20 5 20 9 0 4 -9 8 -20 8 -11 0 -20
-4 -20 -9z"/>
<path d="M210 172 c0 -6 -6 -9 -14 -6 -7 3 -22 -3 -31 -13 -10 -10 -19 -16
-19 -13 -1 3 -20 -2 -44 -9 -46 -15 -40 -31 11 -31 19 0 27 5 28 18 0 11 2 12
6 4 3 -8 9 -10 16 -3 7 5 14 9 17 8 3 -1 16 6 30 16 19 13 22 19 12 29 -9 9
-12 9 -12 0z"/>
<path d="M11 108 c-1 -62 -1 -62 57 -32 l22 11 -28 12 c-16 7 -33 24 -39 39
-10 24 -11 21 -12 -30z"/>
<path d="M220 91 c0 -6 4 -13 10 -16 6 -3 7 1 4 9 -7 18 -14 21 -14 7z"/>
<path d="M72 62 c-97 -40 -83 -52 56 -50 93 1 106 3 62 8 -30 4 -49 7 -42 8 7
1 10 7 7 12 -9 14 9 12 24 -2 10 -11 11 -10 6 3 -4 9 2 24 12 35 17 17 17 18
-2 10 -42 -17 -58 -19 -51 -8 10 16 2 14 -72 -16z"/>
<path d="M1642 70 c14 -22 24 -19 15 5 -4 8 -11 15 -17 15 -6 0 -6 -7 2 -20z"/>
<path d="M1754 65 c1 -17 8 -20 46 -20 39 0 45 3 48 23 2 12 -1 22 -6 22 -6 0
-8 -10 -5 -22 3 -17 2 -19 -5 -9 -7 10 -11 10 -17 1 -6 -9 -10 -9 -16 1 -6 10
-9 11 -9 2 0 -20 -28 -15 -33 5 -3 13 -4 12 -3 -3z"/>
<path d="M1867 75 c-4 -8 -2 -17 3 -20 6 -4 10 3 10 14 0 25 -6 27 -13 6z"/>
<path d="M1583 68 c4 -11 0 -18 -11 -21 -9 -2 3 -3 28 -4 25 0 38 2 30 5 -8 2
-24 12 -34 21 -18 15 -19 15 -13 -1z"/>
<path d="M1677 68 c-7 -20 18 -32 40 -20 13 8 13 10 -1 15 -9 4 -16 1 -17 -6
0 -7 -4 -3 -8 7 -6 17 -8 17 -14 4z"/>
<path d="M2020 70 c0 -5 5 -10 10 -10 6 0 10 5 10 10 0 6 -4 10 -10 10 -5 0
-10 -4 -10 -10z"/>
<path d="M1890 61 c0 -11 26 -22 34 -14 3 4 6 11 6 17 0 6 -5 4 -10 -4 -6 -10
-10 -11 -10 -2 0 6 -4 12 -10 12 -5 0 -10 -4 -10 -9z"/>
<path d="M1472 52 c-8 -6 -2 -9 18 -9 20 0 26 3 18 9 -7 4 -15 8 -18 8 -3 0
-11 -4 -18 -8z"/>
</g>
</svg>
